<?xml version="1.0" encoding="UTF-8" standalone="no"?>
<svg width="38px" height="38px" viewBox="0 0 38 38" version="1.1" xmlns="http://www.w3.org/2000/svg" xmlns:xlink="http://www.w3.org/1999/xlink">
    <!-- Generator: Sketch 3.6.1 (26313) - http://www.bohemiancoding.com/sketch -->
    <title>lightbulb</title>
    <desc>Created with Sketch.</desc>
    <defs>
        <circle id="path-1" cx="19" cy="19" r="19"></circle>
    </defs>
    <g id="icons" stroke="none" stroke-width="1" fill="none" fill-rule="evenodd">
        <g id="lightbulb">
            <g id="Oval-1">
                <use fill="#347BFF" fill-rule="evenodd" xlink:href="#path-1"></use>
                <use fill="none" xlink:href="#path-1"></use>
            </g>
            <path d="M17.2362571,30.5672507 C16.8011694,30.5672507 16.5836256,31.1473677 16.873684,31.4374261 C17.5263156,32.0175431 18.0339179,32.5251454 18.4690056,32.5251454 L20.0643272,32.5251454 C20.4994149,32.5251454 20.9345026,32.0900577 21.5871342,31.4374261 C21.9497073,31.1473677 21.7321634,30.5672507 21.2245611,30.5672507 L17.2362571,30.5672507 L17.2362571,30.5672507 L17.2362571,30.5672507 Z M19.2666664,7 C16.8011694,7 14.6257309,7.94269003 13.1029239,9.61052624 C11.7976608,11.1333332 11,13.0912279 11,14.9766079 C11,18.0947365 12.2327485,19.9076019 13.465497,21.6479528 C13.6105262,21.8654966 13.8280701,22.1555551 13.9730993,22.3730989 C15.1333332,24.0409351 15.3508771,25.1286544 15.3508771,25.201169 C15.4233917,25.7087714 15.8584794,26.0713444 16.3660817,26.0713444 L16.5111109,26.0713444 C17.0912279,25.9263152 17.453801,25.4912275 17.3812864,24.9111106 C17.3812864,24.7660813 17.1637425,23.3883036 15.7134501,21.2853797 C15.5684209,21.0678358 15.3508771,20.7777774 15.2058478,20.5602335 C14.1181286,18.9649119 13.1029239,17.5871342 13.1029239,15.0491226 C13.1029239,13.5988302 13.6830409,12.0760232 14.6982455,10.988304 C15.4959063,10.1181286 16.9461986,9.03040929 19.2666664,9.03040929 C21.0070172,9.03040929 22.6023388,9.75555547 23.7625727,10.988304 C24.7777774,12.1485379 25.4304089,13.6713448 25.4304089,15.0491226 C25.4304089,17.5146196 24.4877189,18.9649119 23.327485,20.5602335 C23.1824558,20.7777774 22.9649119,21.0678358 22.8198827,21.2853797 C21.4421049,23.3883036 21.1520465,24.7660813 21.1520465,24.9111106 C21.0795319,25.4912275 21.4421049,25.9988298 22.0222219,26.0713444 L22.1672511,26.0713444 C22.6748534,26.0713444 23.1099411,25.7087714 23.1824558,25.201169 C23.1824558,25.201169 23.3999996,24.1134498 24.5602335,22.3730989 C24.7052627,22.1555551 24.9228066,21.8654966 25.0678358,21.6479528 C26.3005843,19.9076019 27.5333328,18.0947365 27.5333328,14.9766079 C27.5333328,11.1333332 24.1976604,7 19.2666664,7 L19.2666664,7 Z M22.1672511,29.3345022 L16.4385963,29.3345022 C15.8584794,29.3345022 15.4233917,28.8994145 15.4233917,28.3192976 C15.4233917,27.7391806 15.8584794,27.3040929 16.4385963,27.3040929 L22.1672511,27.3040929 C22.7473681,27.3040929 23.1824558,27.7391806 23.1824558,28.3192976 C23.1824558,28.8994145 22.7473681,29.3345022 22.1672511,29.3345022 L22.1672511,29.3345022 Z" id="Shape-Copy" fill="#FFFFFF"></path>
        </g>
    </g>
</svg>