<?xml version="1.0" encoding="UTF-8" standalone="no"?>
<!-- Created with Inkscape (http://www.inkscape.org/) -->
<svg
   xmlns:dc="http://purl.org/dc/elements/1.1/"
   xmlns:cc="http://web.resource.org/cc/"
   xmlns:rdf="http://www.w3.org/1999/02/22-rdf-syntax-ns#"
   xmlns:svg="http://www.w3.org/2000/svg"
   xmlns="http://www.w3.org/2000/svg"
   xmlns:sodipodi="http://sodipodi.sourceforge.net/DTD/sodipodi-0.dtd"
   xmlns:inkscape="http://www.inkscape.org/namespaces/inkscape"
   width="336.94928"
   height="283.02417"
   id="svg2164"
   sodipodi:version="0.32"
   inkscape:version="0.45"
   version="1.0"
   sodipodi:docbase="D:\"
   sodipodi:docname="manopenna.svg"
   inkscape:output_extension="org.inkscape.output.svg.inkscape"
   inkscape:export-filename="D:\manopenna.png"
   inkscape:export-xdpi="53.419998"
   inkscape:export-ydpi="53.419998"
   sodipodi:modified="TRUE">
  <defs
     id="defs2166" />
  <sodipodi:namedview
     id="base"
     pagecolor="#ffffff"
     bordercolor="#666666"
     borderopacity="1.0"
     inkscape:pageopacity="0.0"
     inkscape:pageshadow="2"
     inkscape:zoom="1.335575"
     inkscape:cx="168.47465"
     inkscape:cy="141.51209"
     inkscape:document-units="px"
     inkscape:current-layer="layer1"
     inkscape:window-width="795"
     inkscape:window-height="579"
     inkscape:window-x="198"
     inkscape:window-y="198" />
  <metadata
     id="metadata2169">
    <rdf:RDF>
      <cc:Work
         rdf:about="">
        <dc:format>image/svg+xml</dc:format>
        <dc:type
           rdf:resource="http://purl.org/dc/dcmitype/StillImage" />
      </cc:Work>
    </rdf:RDF>
  </metadata>
  <g
     inkscape:label="Livello 1"
     inkscape:groupmode="layer"
     id="layer1"
     transform="translate(534.18893,-45.135813)">
    <path
       style="fill:#ffffff;fill-rule:evenodd"
       id="path1939"
       d="M -531.47709,238.99672 C -517.23318,218.88921 -443.82161,114.89887 -432.34394,98.346266 C -420.86626,81.793663 -403.92741,78.723125 -383.25191,91.792479 C -362.5764,104.86183 -368.25092,100.91736 -355.78741,108.83589 L -396.38502,169.28634 C -405.64882,165.76303 -415.97931,162.11164 -427.19073,180.05031 C -438.40214,197.98897 -459.17393,220.83112 -479.68975,252.48191 C -500.20557,284.1327 -545.721,259.10423 -531.47709,238.99672 L -531.47709,238.99672 z "
       class="fil0" />
    <path
       style="fill:#000000;fill-rule:evenodd"
       id="path1941"
       d="M -527.43449,239.91549 C -515.81955,223.18833 -436.77426,109.43254 -428.30134,99.265039 C -419.82842,89.097536 -407.11904,81.471909 -385.08945,94.181287 C -380.04061,97.094163 -370.08847,103.30617 -357.62495,111.2247 L -394.13146,165.1548 C -403.39526,161.63149 -417.77147,160.00067 -427.48547,175.54318 C -440.19485,195.87818 -473.19733,243.16169 -483.36484,252.48191 C -500.31068,274.5115 -539.04943,256.64266 -527.43449,239.91549 L -527.43449,239.91549 z M -465.79644,271.02328 C -471.21922,257.90487 -465.56895,240.86954 -444.04652,238.89271 L -465.79644,271.02328 z "
       class="fil1" />
    <polygon
       style="fill:#ffffff;fill-rule:evenodd"
       id="polygon1943"
       points="106.379,142.977 126.076,157.083 34.8804,282.234 8.9034,297 15.2087,268.093 106.379,142.977 "
       class="fil0"
       transform="matrix(1.8375448,0,0,1.8375448,-534.18282,-217.59083)" />
    <polygon
       style="fill:#000000;fill-rule:evenodd"
       id="polygon1945"
       points="106.828,145.758 123.272,157.535 33.5176,280.708 11.813,293.046 17.073,268.931 106.828,145.758 "
       class="fil1"
       transform="matrix(1.8375448,0,0,1.8375448,-534.18282,-217.59083)" />
    <path
       style="fill:#ffffff;fill-rule:evenodd"
       id="path1947"
       d="M -337.6005,119.91647 C -296.02256,146.58016 -243.62313,180.8456 -234.42383,186.5067 C -225.29895,192.12206 -207.45051,194.68231 -197.23964,194.72329 L -197.23964,284.23909 C -245.56119,285.08932 -408.85681,289.04519 -441.94915,289.90534 C -479.0795,290.87042 -481.96683,237.80893 -441.94915,236.11728 C -401.93147,234.42564 -391.86668,232.39607 -379.1573,229.0069 C -366.44793,225.61774 -354.1395,216.83887 -364.27282,202.53983 C -374.40615,188.2408 -376.44527,185.18128 -381.40977,179.24418 L -337.60013,119.91647 L -337.6005,119.91647 z "
       class="fil0" />
    <path
       style="fill:#000000;fill-rule:evenodd"
       id="path1949"
       d="M -339.98931,122.48903 C -298.41137,149.15273 -244.19645,184.53539 -236.81264,189.07927 C -225.88678,195.80284 -207.4597,198.35758 -197.23964,198.39838 L -197.23964,280.75566 C -246.37504,281.65807 -414.84169,285.88792 -441.94915,286.41401 C -472.3188,287.00349 -480.08886,240.43809 -441.94915,238.74644 C -403.80944,237.0548 -391.86668,236.52761 -379.1573,233.13844 C -366.44793,229.74927 -348.05099,219.37909 -360.51688,201.78865 C -368.31781,190.78083 -374.19171,182.17653 -379.1562,176.23942 L -339.98894,122.48903 L -339.98931,122.48903 z "
       class="fil1" />
  </g>
</svg>
